<?xml version="1.0" encoding="utf-8"?>
<!-- Generator: Adobe Illustrator 23.0.3, SVG Export Plug-In . SVG Version: 6.00 Build 0)  -->
<svg version="1.1" id="Capa_1" xmlns="http://www.w3.org/2000/svg" xmlns:xlink="http://www.w3.org/1999/xlink" x="0px" y="0px"
	 viewBox="0 0 150 150" style="enable-background:new 0 0 150 150;" xml:space="preserve">
<style type="text/css">
	.st0{opacity:0.5;fill:#FFFFFF;}
</style>
<path class="st0" d="M140,83.75v-17.5c-8.94-3.18-14.59-4.07-17.44-10.94V55.3c-2.85-6.88,0.54-11.56,4.59-20.08l-12.38-12.38
	c-8.46,4.02-13.18,7.45-20.08,4.59h-0.01C87.82,24.59,86.92,18.9,83.75,10h-17.5c-3.15,8.86-4.06,14.58-10.94,17.44H55.3
	c-6.88,2.86-11.55-0.53-20.08-4.59L22.85,35.23c4.04,8.49,7.45,13.18,4.59,20.08C24.59,62.19,18.86,63.1,10,66.25v17.51
	c8.84,3.14,14.58,4.06,17.44,10.94c2.87,6.94-0.62,11.73-4.59,20.08l12.38,12.38c8.46-4.02,13.18-7.45,20.08-4.59h0.01
	c6.88,2.85,7.78,8.55,10.94,17.44h17.51c3.15-8.86,4.06-14.57,10.98-17.45h0.01c6.84-2.84,11.48,0.55,20.03,4.61l12.38-12.38
	c-4.02-8.47-7.45-13.18-4.59-20.07C125.41,87.82,131.15,86.9,140,83.75z M75,102.08c-14.96,0-27.08-12.13-27.08-27.08
	S60.04,47.92,75,47.92S102.08,60.04,102.08,75S89.96,102.08,75,102.08z M91.25,75c0,8.96-7.29,16.25-16.25,16.25
	S58.75,83.96,58.75,75S66.04,58.75,75,58.75S91.25,66.04,91.25,75z"/>
</svg>
