<?xml version="1.0" encoding="utf-8"?>
<!-- Generator: Adobe Illustrator 23.0.3, SVG Export Plug-In . SVG Version: 6.00 Build 0)  -->
<svg version="1.1" id="Capa_1" xmlns="http://www.w3.org/2000/svg" xmlns:xlink="http://www.w3.org/1999/xlink" x="0px" y="0px"
	 viewBox="0 0 150 150" style="enable-background:new 0 0 150 150;" xml:space="preserve">
<style type="text/css">
	.st0{opacity:0.5;}
	.st1{fill:#FFFFFF;}
</style>
<g class="st0">
	<path class="st1" d="M14.79,63.74c-8.9,22.31-4.77,45.92,7.15,62.72h106.11c7.52-10.61,11.94-23.93,11.94-37.92
		c0-38.5-33.47-69.18-72.9-64.53C43.92,26.74,23.44,42.05,14.79,63.74z M71.05,34.16c1.23-0.11,2.6-0.16,3.95-0.16
		c1.34,0,2.72,0.05,6.89,0.16v16.87c-4.14-0.15-5.52-0.23-6.89-0.23s-2.74,0.08-3.95,0.23V34.16z M39.68,77.38l-15.6-6.46
		c0.85-2.59,1.9-5.14,3.15-7.58l15.59,6.46C41.48,72.2,40.43,74.74,39.68,77.38z M46.26,64.64L34.33,52.71
		c1.78-2.07,3.73-4.02,5.8-5.8l11.93,11.93C49.93,60.55,47.98,62.5,46.26,64.64z M50.56,39.9c2.43-1.25,4.98-2.32,7.56-3.17
		l6.53,15.57c-2.63,0.76-5.16,1.83-7.56,3.17L50.56,39.9z M58.19,115.63c0.1-6.23,3.56-11.65,8.68-14.47L75,63.01l8.14,38.14
		c5.11,2.83,8.58,8.24,8.68,14.47H58.19z M85.2,52.25l6.46-15.59c2.59,0.85,5.14,1.91,7.58,3.15l-6.46,15.59
		C90.38,54.06,87.84,53.01,85.2,52.25z M97.93,58.84l11.93-11.93c2.07,1.78,4.02,3.73,5.8,5.8l-11.93,11.93
		C102.02,62.5,100.07,60.55,97.93,58.84z M110.17,76.83c-0.8-2.62-1.9-5.15-3.27-7.53l15.49-6.71c1.27,2.41,2.37,4.94,3.26,7.53
		L110.17,76.83z"/>
</g>
</svg>
