<?xml version="1.0" encoding="utf-8"?>
<!-- Generator: Adobe Illustrator 23.0.3, SVG Export Plug-In . SVG Version: 6.00 Build 0)  -->
<svg version="1.1" id="Capa_1" xmlns="http://www.w3.org/2000/svg" xmlns:xlink="http://www.w3.org/1999/xlink" x="0px" y="0px"
	 viewBox="0 0 150 150" style="enable-background:new 0 0 150 150;" xml:space="preserve">
<style type="text/css">
	.st0{opacity:0.5;}
	.st1{fill:#FFFFFF;}
</style>
<g class="st0">
	<path class="st1" d="M63.84,10l-5.09,26.93v5.95c0,5.77-5.06,10.46-10.83,10.46s-10.83-4.69-10.83-10.47v-5.94L53.31,10H63.84z
		 M47.3,10L31.67,36.93v5.95c0,5.77-5.06,10.46-10.83,10.46S10,48.65,10,42.87v-5.94L36.4,10H47.3z M140,42.87
		c0,5.78-5.06,10.47-10.83,10.47c-5.77,0-10.83-5.05-10.83-10.83v-5.95L102.7,10h10.91L140,36.93V42.87z M85.83,36.54v5.95
		c0,5.77-5.06,10.84-10.83,10.84S64.17,48.28,64.17,42.5v-5.95L69.84,10h10.32L85.83,36.54z M96.69,10l16.23,27.09v4.45
		c0,3.62-1.42,7.25-4.3,9.46c-7.83,6-17.37-0.57-17.37-8.5v-5.95L86.16,10H96.69z M123.75,75v37.92h-97.5V75H123.75z M134.58,64.17
		H15.42V140h119.17L134.58,64.17L134.58,64.17z M34.38,95.78c-0.69,0-1.39-0.27-1.92-0.79c-1.06-1.06-1.06-2.77,0-3.83l9.94-9.94
		c1.06-1.06,2.77-1.06,3.83,0s1.06,2.77,0,3.83l-9.94,9.94C35.76,95.51,35.07,95.78,34.38,95.78z M37.18,106.71L58.9,84.99
		c1.06-1.06,1.06-2.77,0-3.83c-1.06-1.06-2.77-1.06-3.83,0l-21.72,21.72c-1.06,1.06-1.06,2.77,0,3.83c0.53,0.53,1.22,0.79,1.91,0.79
		C35.96,107.5,36.65,107.23,37.18,106.71z"/>
</g>
</svg>
