<?xml version="1.0" encoding="utf-8"?>
<!-- Generator: Adobe Illustrator 23.0.3, SVG Export Plug-In . SVG Version: 6.00 Build 0)  -->
<svg version="1.1" id="Capa_1" xmlns="http://www.w3.org/2000/svg" xmlns:xlink="http://www.w3.org/1999/xlink" x="0px" y="0px"
	 viewBox="0 0 150 150" style="enable-background:new 0 0 150 150;" xml:space="preserve">
<style type="text/css">
	.st0{opacity:0.5;}
	.st1{fill:#FFFFFF;}
</style>
<g class="st0">
	<path class="st1" d="M75,10c-35.9,0-65,29.1-65,65s29.1,65,65,65s65-29.1,65-65S110.9,10,75,10z M54.85,99.38
		C47.29,93.42,42.5,84.72,42.5,75s4.79-18.41,12.35-24.38l4.01,4.07c-6.3,4.97-10.3,12.22-10.3,20.3s4,15.33,10.3,20.3L54.85,99.38z
		 M62.87,91.25c-5.04-3.97-8.24-9.77-8.24-16.25c0-6.47,3.2-12.28,8.24-16.25l4.01,4.07C63.1,65.8,60.69,70.15,60.69,75
		s2.4,9.2,6.18,12.18L62.87,91.25z M75,83.12c-4.49,0-8.12-3.63-8.12-8.12c0-4.49,3.64-8.12,8.12-8.12s8.12,3.64,8.12,8.12
		C83.12,79.49,79.49,83.12,75,83.12z M87.13,91.25l-4.01-4.07C86.9,84.2,89.3,79.85,89.3,75s-2.4-9.2-6.18-12.18l4.01-4.07
		c5.04,3.97,8.24,9.78,8.24,16.25C95.37,81.48,92.18,87.28,87.13,91.25z M95.15,99.38l-4.01-4.08c6.3-4.97,10.3-12.22,10.3-20.3
		s-4-15.33-10.3-20.3l4.01-4.07c7.56,5.96,12.35,14.66,12.35,24.37S102.71,93.42,95.15,99.38z"/>
</g>
</svg>
