<svg height="512pt" viewBox="-80 0 512 512" width="512pt" xmlns="http://www.w3.org/2000/svg"><path d="m175.839844 7.5c-92.972656 0-168.339844 75.367188-168.339844 168.339844 0 127.757812 118.445312 278.078125 156.628906 323.21875 3.070313 3.625 7.390625 5.441406 11.710938 5.441406 4.320312 0 8.640625-1.8125 11.710937-5.441406 38.183594-45.140625 156.628907-195.460938 156.628907-323.21875 0-92.972656-75.367188-168.339844-168.339844-168.339844zm0 0" fill="#eceaec"/><path d="m87.660156 151.792969h176.359375v120.242187h-176.359375zm0 0" fill="#f6d190"/><path d="m264.019531 151.792969h-176.359375v47.210937c.488282.121094.960938.273438 1.464844.355469 2.167969.351563 4.375.53125 6.554688.53125 5.53125 0 10.996093-1.144531 16.03125-3.339844 5.035156 2.191407 10.5 3.339844 16.03125 3.339844s10.996093-1.144531 16.03125-3.339844c5.035156 2.195313 10.5 3.339844 16.03125 3.339844 5.535156 0 11-1.144531 16.035156-3.339844 5.035156 2.195313 10.5 3.339844 16.03125 3.339844s10.996094-1.144531 16.03125-3.339844c5.035156 2.195313 10.5 3.339844 16.03125 3.339844s11-1.144531 16.035156-3.339844c5.035156 2.191407 10.5 3.339844 16.027344 3.339844 2.183594 0 4.386718-.179687 6.558594-.53125.5-.082031.972656-.234375 1.460937-.355469v-47.210937zm0 0" fill="#ecbd83"/><path d="m223.9375 239.96875h-96.195312c-4.425782 0-8.015626-3.585938-8.015626-8.015625v-32.890625l56.316407-19.699219 55.910156 18.886719v33.703125c0 4.429687-3.589844 8.015625-8.015625 8.015625zm0 0" fill="#dbeaff"/><path d="m271.058594 135.757812c-.574219-1.988281-1.375-3.917968-2.453125-5.710937l-15.949219-26.585937c-2.898438-4.828126-8.117188-7.78125-13.75-7.78125h-126.132812c-5.632813 0-10.851563 2.953124-13.75 7.78125l-15.949219 26.585937c-1.078125 1.792969-1.878907 3.722656-2.453125 5.710937l95.21875 16.035157zm0 0" fill="#ff8086"/><path d="m39.566406 183.855469c0-92.972657 75.367188-168.339844 168.339844-168.339844 8.421875 0 16.632812.820313 24.726562 2.015625-17.769531-6.375-36.832031-10.03125-56.792968-10.03125-92.972656 0-168.339844 75.367188-168.339844 168.339844 0 127.757812 118.445312 278.078125 156.628906 323.21875 3.070313 3.625 7.390625 5.441406 11.710938 5.441406 4.320312 0 8.640625-1.8125 11.710937-5.441406.308594-.367188.667969-.796875.984375-1.175782-44.238281-53.8125-148.96875-193.882812-148.96875-314.027343zm0 0" fill="#dad8db"/><path d="m119.726562 199.0625c2.628907.535156 5.3125.828125 8.015626.828125 5.53125 0 10.996093-1.148437 16.03125-3.339844 5.039062 2.191407 10.503906 3.339844 16.035156 3.339844s10.996094-1.148437 16.03125-3.339844c5.035156 2.191407 10.5 3.339844 16.03125 3.339844s10.996094-1.148437 16.03125-3.339844c5.035156 2.191407 10.5 3.339844 16.03125 3.339844 2.703125 0 5.386718-.292969 8.015625-.828125v-39.253906h-112.222657zm0 0" fill="#c3ddff"/><path d="m79.644531 142.421875v16.527344c0 7.984375 5.457031 15.390625 13.339844 16.671875 6.660156 1.082031 12.71875-1.941406 16.046875-6.9375 1.3125-1.96875 4.039062-1.984375 5.347656-.015625 2.875 4.324219 7.785156 7.171875 13.363282 7.171875 5.582031 0 10.496093-2.851563 13.367187-7.175782 1.300781-1.960937 4.027344-1.960937 5.332031 0 2.871094 4.324219 7.785156 7.175782 13.367188 7.175782 5.578125 0 10.492187-2.851563 13.363281-7.175782 1.304687-1.960937 4.03125-1.960937 5.332031 0 2.871094 4.324219 7.785156 7.175782 13.367188 7.175782 5.578125 0 10.496094-2.851563 13.367187-7.175782 1.300781-1.960937 4.027344-1.960937 5.332031 0 2.871094 4.324219 7.785157 7.175782 13.363282 7.175782s10.492187-2.847656 13.363281-7.171875c1.308594-1.96875 4.039063-1.953125 5.347656.015625 3.328125 5 9.390625 8.019531 16.046875 6.9375 7.882813-1.28125 13.339844-8.683594 13.339844-16.671875v-16.527344c0-2.269531-.351562-4.503906-.976562-6.664063h-190.433594c-.621094 2.160157-.976563 4.394532-.976563 6.664063zm0 0" fill="#e5646e"/><path d="m305.636719 57.214844c-2.792969-3.058594-7.539063-3.269532-10.59375-.476563-3.058594 2.796875-3.269531 7.539063-.476563 10.597657 27.15625 29.695312 42.113282 68.230468 42.113282 108.503906 0 125.550781-118.53125 275.429687-154.855469 318.375-1.519531 1.796875-3.644531 2.785156-5.984375 2.785156s-4.464844-.988281-5.984375-2.785156c-36.328125-42.945313-154.855469-192.820313-154.855469-318.375 0-88.6875 72.152344-160.839844 160.839844-160.839844 34.222656 0 66.890625 10.601562 94.476562 30.65625 3.355469 2.4375 8.042969 1.695312 10.480469-1.652344 2.433594-3.351562 1.691406-8.042968-1.65625-10.480468-30.167969-21.929688-65.886719-33.523438-103.300781-33.523438-96.957032 0-175.839844 78.882812-175.839844 175.839844 0 56.03125 21.871094 122.097656 65.011719 196.359375 34.359375 59.148437 73.261719 107.902343 93.390625 131.699219 4.355468 5.148437 10.710937 8.101562 17.4375 8.101562 6.726562 0 13.082031-2.953125 17.4375-8.097656 20.128906-23.800782 59.03125-72.554688 93.390625-131.703125 43.140625-74.261719 65.011719-140.328125 65.011719-196.359375 0-44.027344-16.351563-86.15625-46.042969-118.625zm0 0"/><path d="m271.519531 264.535156v-87.058594c4.90625-4.316406 8.015625-10.632812 8.015625-17.667968v-24.046875c0-1.359375-.371094-2.695313-1.070312-3.859375l-24.046875-40.082032c-1.355469-2.257812-3.796875-3.640624-6.433594-3.640624h-144.289063c-2.636718 0-5.078124 1.382812-6.433593 3.640624l-24.046875 40.078126c-.699219 1.167968-1.070313 2.5-1.070313 3.859374v24.050782c0 7.035156 3.109375 13.351562 8.015625 17.667968v87.058594h-8.53125c-4.140625 0-7.5 3.355469-7.5 7.5 0 4.140625 3.359375 7.5 7.5 7.5h208.421875c4.140625 0 7.5-3.359375 7.5-7.5 0-4.144531-3.359375-7.5-7.5-7.5zm-184.375-104.726562v-16.546875h177.390625v16.546875c0 4.703125-3.828125 8.53125-8.53125 8.53125-4.707031 0-8.535156-3.828125-8.535156-8.53125 0-4.144532-3.355469-7.5-7.5-7.5-4.140625 0-7.5 3.355468-7.5 7.5 0 4.703125-3.828125 8.53125-8.53125 8.53125s-8.53125-3.828125-8.53125-8.53125c0-4.144532-3.359375-7.5-7.5-7.5s-7.5 3.355468-7.5 7.5c0 4.703125-3.828125 8.53125-8.535156 8.53125-4.703125 0-8.53125-3.828125-8.53125-8.53125 0-4.144532-3.355469-7.5-7.5-7.5-4.140625 0-7.5 3.355468-7.5 7.5 0 4.703125-3.828125 8.53125-8.53125 8.53125s-8.53125-3.828125-8.53125-8.53125c0-4.144532-3.359375-7.5-7.5-7.5-4.144532 0-7.5 3.355468-7.5 7.5 0 4.703125-3.828125 8.53125-8.535156 8.53125-4.703126 0-8.53125-3.828125-8.53125-8.53125 0-4.144532-3.355469-7.5-7.5-7.5-4.140626 0-7.5 3.355468-7.5 7.5 0 4.703125-3.828126 8.53125-8.53125 8.53125-4.707032 0-8.535157-3.828125-8.535157-8.53125zm20.796875-56.628906h135.796875l15.050781 25.078124h-165.898437zm-12.78125 80.148437c.175782 0 .34375.011719.519532.011719 6.1875 0 11.824218-2.402344 16.03125-6.320313 4.203124 3.917969 9.84375 6.320313 16.03125 6.320313s11.828124-2.402344 16.03125-6.320313c4.207031 3.917969 9.84375 6.320313 16.035156 6.320313 6.1875 0 11.828125-2.402344 16.03125-6.320313 4.207031 3.917969 9.84375 6.320313 16.03125 6.320313s11.828125-2.402344 16.035156-6.320313c4.203125 3.917969 9.84375 6.320313 16.03125 6.320313s11.828125-2.402344 16.03125-6.320313c4.207031 3.917969 9.84375 6.320313 16.035156 6.320313.171875 0 .34375-.007813.515625-.011719v81.207031h-161.359375zm0 0"/><path d="m231.953125 196.398438c-4.140625 0-7.5 3.355468-7.5 7.5v28.570312h-97.226563v-28.570312c0-4.144532-3.359374-7.5-7.5-7.5-4.140624 0-7.5 3.355468-7.5 7.5v36.070312c0 4.144531 3.359376 7.5 7.5 7.5h112.226563c4.140625 0 7.5-3.355469 7.5-7.5v-36.070312c0-4.144532-3.359375-7.5-7.5-7.5zm0 0"/></svg>