<?xml version="1.0" encoding="iso-8859-1"?>
<!-- Generator: Adobe Illustrator 19.0.0, SVG Export Plug-In . SVG Version: 6.00 Build 0)  -->
<svg version="1.1" id="Layer_1" xmlns="http://www.w3.org/2000/svg" xmlns:xlink="http://www.w3.org/1999/xlink" x="0px" y="0px"
	 viewBox="0 0 512 512" style="enable-background:new 0 0 512 512;" xml:space="preserve">
<circle style="fill:#0F7986;" cx="256" cy="256" r="256"/>
<path style="fill:#FFFFFF;" d="M154.055,59.954H315.05c5.658,0,10.268,4.619,10.268,10.275v57.778h-24.454V88.351
	c0-3.459-2.785-6.284-6.185-6.284H174.423c-3.397,0-6.194,2.839-6.194,6.284v39.656h-24.445V70.229
	c0-5.655,4.617-10.275,10.272-10.275C154.056,59.954,154.055,59.954,154.055,59.954z"/>
<path style="fill:#DCE3DB;" d="M308.409,128.007h-7.54V88.351c0-3.459-2.79-6.284-6.189-6.284H174.419
	c-3.395,0-6.191,2.839-6.191,6.284v39.656h-7.536V83.776c0-5.011,3.766-9.093,8.366-9.093H300.05c4.595,0,8.363,4.081,8.363,9.093
	v44.231H308.409z"/>
<path style="fill:#FF5B62;" d="M35.88,118.204h397.33c9.051,0,16.459,7.43,16.459,16.459v258.009
	c0,9.029-7.434,16.459-16.459,16.459h-47.592v3.133c0,3.12-2.547,5.667-5.664,5.667h-44.822c-3.118,0-5.667-2.547-5.667-5.667
	v-3.133H139.62v3.133c0,3.12-2.544,5.667-5.667,5.667H89.136c-3.12,0-5.664-2.547-5.664-5.667v-3.133h-47.59
	c-9.017,0-16.459-7.404-16.459-16.459V134.664c0-9.059,7.41-16.459,16.459-16.459L35.88,118.204L35.88,118.204z"/>
<path style="fill:#ED4C54;" d="M448.924,397.542c-2.099,6.681-8.383,11.586-15.716,11.586h-47.592v3.133
	c0,3.12-2.547,5.667-5.664,5.667H335.13c-3.118,0-5.667-2.547-5.667-5.667v-3.133H139.618v3.133c0,3.12-2.544,5.667-5.667,5.667
	H89.133c-3.12,0-5.664-2.547-5.664-5.667v-3.133H35.88c-7.331,0-13.617-4.892-15.716-11.586H448.924z"/>
<circle style="fill:#21D0C3;" cx="412.98" cy="387.62" r="99.02"/>
<path style="fill:#FFFFFF;" d="M412.979,299.163c48.852,0,88.456,39.603,88.456,88.461c0,48.852-39.605,88.461-88.456,88.461
	c-48.855,0-88.461-39.605-88.461-88.461S364.123,299.163,412.979,299.163z"/>
<path style="fill:#FF5B62;" d="M424.518,373.746c-9.095-4.119-15.427-13.275-15.432-23.909c-0.004-9.961,5.538-18.631,13.712-23.08
	l0.011,20.904l12.6,6.187l12.447-6.198l-0.011-20.904c8.178,4.44,13.729,13.105,13.734,23.065
	c0.007,10.634-6.315,19.795-15.405,23.927c0.091,0.565,0.139,1.147,0.139,1.733l0.018,94.101c-6.916,2.817-14.27,4.789-21.929,5.779
	l-0.018-99.869c0-0.589,0.046-1.169,0.137-1.736H424.518z"/>
<path style="fill:#ED4C54;" d="M440.854,471.595c-3.585,1.191-7.274,2.157-11.044,2.886v-91.065c0-3.036,2.485-5.521,5.521-5.521
	h0.002c3.038,0,5.523,2.505,5.523,5.521v88.178L440.854,471.595L440.854,471.595z"/>
<path style="fill:#FCB42A;" d="M368.846,414.674h2.866v-2.807c0-1.204,0.981-2.185,2.185-2.185h18.973
	c1.202,0,2.185,0.981,2.185,2.185v2.807h2.866c2.46,0,4.471,2.015,4.471,4.471v56.303c-13.924-1.661-26.85-6.557-38.019-13.913
	v-42.388c0-2.46,2.013-4.471,4.471-4.471L368.846,414.674L368.846,414.674z"/>
<path style="fill:#FAD24D;" d="M368.846,414.674h2.866v-2.807c0-1.204,0.981-2.185,2.185-2.185h18.973
	c1.202,0,2.185,0.981,2.185,2.185v2.807h2.866c2.46,0,4.471,2.015,4.471,4.471v56.303l-1.292-0.163l-0.895-0.126
	c-0.476-0.071-0.952-0.144-1.426-0.219l-0.273-0.044l-0.644-0.108l-1.195-0.214l-0.086-0.015l-0.64-0.124l-0.115-0.022l-1.156-0.236
	l-0.633-0.135l-0.243-0.055c-0.514-0.113-1.023-0.23-1.532-0.352l-0.113-0.026l-0.626-0.155l-0.055-0.013l-1.175-0.302l-0.015-0.004
	l-0.62-0.168l-0.108-0.029c-0.549-0.15-1.096-0.304-1.638-0.467l-0.106-0.031l-0.615-0.183c-0.408-0.124-0.815-0.252-1.222-0.381
	l-0.609-0.197l-0.035-0.011c-0.582-0.192-1.162-0.388-1.74-0.593l-0.066-0.024c-0.591-0.21-1.18-0.423-1.764-0.644l-0.593-0.228
	l-1.182-0.465l-0.589-0.241c-2.542-1.045-5.025-2.205-7.443-3.47l-0.556-0.295c-0.547-0.291-1.092-0.589-1.63-0.89l-0.042-0.024
	c-0.529-0.297-1.056-0.602-1.579-0.908l-0.095-0.055c-0.523-0.308-1.041-0.622-1.557-0.941l-0.534-0.33
	c-0.494-0.31-0.983-0.626-1.471-0.946l-0.11-0.073v-42.388c0-2.46,2.013-4.471,4.471-4.471L368.846,414.674z"/>
<rect x="378.13" y="356.64" style="fill:#15BDB2;" width="10.512" height="53.04"/>
<path style="fill:#21D0C3;" d="M378.68,326.756h4.703h4.703l6.227,24.485l-5.257,6.641h-5.671h-5.673l-5.257-6.641L378.68,326.756z"
	/>
<path style="fill:#F5A30A;" d="M371.84,420.237h0.002c1.621,0,2.943,1.329,2.943,2.943v44.253c-2.006-0.961-3.971-1.997-5.889-3.102
	V423.18C368.897,421.562,370.222,420.237,371.84,420.237z M397.866,474.791c-1.986-0.341-3.951-0.755-5.889-1.224v-50.385
	c0-1.619,1.325-2.943,2.943-2.943h0.002c1.619,0,2.943,1.329,2.943,2.943v51.611L397.866,474.791L397.866,474.791z M386.326,471.994
	c-1.995-0.629-3.957-1.325-5.889-2.09v-46.723c0-1.619,1.325-2.943,2.943-2.943l0,0c1.621,0,2.943,1.329,2.943,2.943v48.813H386.326
	L386.326,471.994L386.326,471.994z"/>
<path style="fill:#FAD24D;" d="M311.876,277.715v-19.297l-11.818-1.389c-0.703-4.201-1.797-8.271-3.25-12.164l9.531-7.108
	l-9.648-16.71l-10.934,4.708c-2.679-3.239-5.66-6.22-8.899-8.899l4.708-10.934l-16.71-9.648l-7.106,9.531
	c-3.895-1.45-7.966-2.546-12.166-3.25l-1.389-11.818h-19.297l-1.389,11.818c-4.201,0.703-8.271,1.796-12.164,3.25l-7.108-9.531
	l-16.71,9.648l4.708,10.934c-3.239,2.679-6.218,5.66-8.897,8.899l-10.936-4.708l-9.648,16.71l9.531,7.106
	c-1.45,3.893-2.546,7.964-3.25,12.164l-11.818,1.391v19.297l11.818,1.389c0.703,4.201,1.797,8.271,3.25,12.164l-9.531,7.108
	l9.648,16.71l10.934-4.708c2.679,3.239,5.66,6.218,8.899,8.897l-4.708,10.936l16.71,9.648l7.106-9.531
	c3.893,1.45,7.964,2.546,12.164,3.25l1.391,11.818h19.297l1.389-11.818c4.201-0.703,8.271-1.797,12.164-3.25l7.108,9.531
	l16.71-9.648l-4.708-10.934c3.239-2.679,6.218-5.66,8.897-8.899l10.936,4.708l9.648-16.71l-9.531-7.106
	c1.45-3.893,2.546-7.964,3.25-12.164L311.876,277.715z M234.547,293.913c-14.274,0-25.845-11.571-25.845-25.845
	s11.571-25.845,25.845-25.845s25.845,11.571,25.845,25.845C260.392,282.342,248.821,293.913,234.547,293.913z"/>
<path style="fill:#EDB937;" d="M234.547,231.931c-19.958,0-36.137,16.179-36.137,36.137s16.179,36.137,36.137,36.137
	s36.137-16.179,36.137-36.137S254.505,231.931,234.547,231.931z M234.547,293.913c-14.274,0-25.845-11.571-25.845-25.845
	s11.571-25.845,25.845-25.845s25.845,11.571,25.845,25.845C260.392,282.342,248.821,293.913,234.547,293.913z"/>
<g>
</g>
<g>
</g>
<g>
</g>
<g>
</g>
<g>
</g>
<g>
</g>
<g>
</g>
<g>
</g>
<g>
</g>
<g>
</g>
<g>
</g>
<g>
</g>
<g>
</g>
<g>
</g>
<g>
</g>
</svg>
