<?xml version="1.0" encoding="iso-8859-1"?>
<!-- Generator: Adobe Illustrator 19.0.0, SVG Export Plug-In . SVG Version: 6.00 Build 0)  -->
<svg version="1.1" id="Capa_1" xmlns="http://www.w3.org/2000/svg" xmlns:xlink="http://www.w3.org/1999/xlink" x="0px" y="0px"
	 viewBox="0 0 489.6 489.6" style="enable-background:new 0 0 489.6 489.6;" xml:space="preserve">
<g>
	<path d="M384,0H105.6C47.3,0,0,47.3,0,105.6V384c0,58.3,47.3,105.6,105.6,105.6H384c58.3,0,105.6-47.3,105.6-105.6V105.6
		C489.6,47.3,442.3,0,384,0z M396.1,365.6c-7.8,8.3-16.5,15.6-23.8,24.3c-11.2,12.2-24.8,16.5-40.8,15.6c-22.4-1.5-43.3-9.2-63.7-19
		c-45.2-21.9-84.1-52.5-116.6-91.4c-23.8-28.7-43.7-59.3-56.9-94.8c-6.3-17-10.7-34.5-9.2-52.5c1-11.2,5.3-20.9,13.6-29.2
		c8.7-8.7,17.5-17.5,26.2-26.2c11.7-11.2,26.2-11.2,37.4,0c7.3,6.8,14.1,14.1,21.4,21.4c6.8,6.8,13.6,13.6,20.9,20.9
		c12.1,12.1,12.1,26.2,0,38.4c-8.7,8.7-17,17.5-26.2,25.8c-2.4,2.4-2.4,3.9-1.5,6.8c5.8,14.1,14.1,26.2,23.3,37.9
		c19,23.3,40.3,43.7,65.6,59.8c5.3,3.4,11.7,5.8,17,9.2c2.9,1.5,4.9,1,7.3-1.5c8.7-8.7,17.5-17.5,26.2-26.2
		c11.7-11.7,26.2-11.7,37.4,0c14.1,14.1,28.2,28.2,42.3,42.3C407.7,338.8,407.7,353.4,396.1,365.6z"/>
</g>
<g>
</g>
<g>
</g>
<g>
</g>
<g>
</g>
<g>
</g>
<g>
</g>
<g>
</g>
<g>
</g>
<g>
</g>
<g>
</g>
<g>
</g>
<g>
</g>
<g>
</g>
<g>
</g>
<g>
</g>
</svg>
